<svg xmlns="http://www.w3.org/2000/svg" fill="none" viewBox="0 0 1400 1400">
    <defs />
    <g clip-path="url(#clip0)">
        <path fill="#fff" d="M700.2 0l700.2 699.7-700.2 699.8L0 699.7z" />
        <path fill="#000" fill-rule="evenodd"
            d="M511.5 440.3c.1-4.8 2.8-9.2 7-11.5l175.8-96c4-2.3 8.9-2.2 12.9 0l174.5 96a13.5 13.5 0 01.7 23.3L707.9 561.6a13.4 13.4 0 01-14.3 0L517.8 452.2c-4-2.5-6.5-7-6.3-11.8zm13.4.4l175.8 109.5 174.6-109.5-174.6-96.1-175.8 96z"
            clip-rule="evenodd" />
        <path fill="#000" fill-rule="evenodd"
            d="M518.8 515.4c2-3.1 6.1-4 9.3-2.1l172.2 107.3 171-107.3a6.7 6.7 0 117.1 11.4L704 634.3a6.7 6.7 0 01-7.1 0L521 524.7a6.7 6.7 0 01-2.2-9.3z"
            clip-rule="evenodd" />
        <path fill="#000" fill-rule="evenodd"
            d="M518.8 591c2-3.2 6.1-4.1 9.3-2.2l172.2 107.4 171-107.4c3.2-2 7.3-1 9.3 2.2 2 3.1 1 7.3-2.1 9.2L703.9 709.8a6.7 6.7 0 01-7.1 0L521 600.2a6.7 6.7 0 01-2.2-9.2z"
            clip-rule="evenodd" />
        <path fill="#000"
            d="M467.6 786.1c8.7 0 16.2 1.3 22.6 3.7a51.8 51.8 0 0117.5 11.2L495 816c-8-6.6-16.4-9.8-25.4-9.8-4.8 0-8.6 1-11.4 3a9.5 9.5 0 00-4.2 8.4c0 2.5.6 4.7 1.9 6.3 1.2 1.6 3.4 3.1 6.5 4.6a131 131 0 0014 5.1 64.6 64.6 0 0126.1 14c5.6 5.6 8.4 13.4 8.4 23.5 0 7.3-1.8 13.7-5.5 19.2s-9 9.8-16 13c-6.8 3-15 4.4-24.5 4.4s-17.9-1.5-25.3-4.5c-7.2-3-13.5-7-18.7-12l13.9-15.2a42 42 0 0029.3 11.4c5.6 0 10.1-1.3 13.3-3.7 3.4-2.6 5-6.1 5-10.6a13 13 0 00-1.8-7.2c-1.2-2-3.3-3.8-6.3-5.3a85 85 0 00-13-5 63.7 63.7 0 01-27.5-14.4c-5.4-5.7-8-13-8-21.6 0-6.7 1.7-12.6 5.3-17.6 3.6-5.1 8.5-9 14.9-11.7a53.2 53.2 0 0121.6-4.2zm113.6 114.6a45.5 45.5 0 01-24 7c-19.5 0-29.2-10.8-29.2-32v-41.2h-12.5V816H528v-19.3l26.4-3v22.3h20.4l-2.8 18.4h-17.6v40.8c0 4.1.7 7 2 8.9 1.4 1.7 3.5 2.6 6.4 2.6 3 0 6.2-1 9.5-2.8l8.9 16.7zm77.4-21.6c0 3.4.5 5.8 1.4 7.4a9 9 0 004.7 3.5l-5.6 17.2c-5.4-.4-9.9-1.6-13.3-3.5-3.5-2-6.2-5.1-8-9.3-5.9 8.9-14.8 13.3-26.8 13.3-8.8 0-15.9-2.5-21.1-7.7a26.8 26.8 0 01-7.9-20c0-9.7 3.6-17.1 10.7-22.3a52.6 52.6 0 0131-7.7h9v-3.8c0-5.3-1.1-8.8-3.3-10.7-2.3-2-6.2-3-11.7-3a97.5 97.5 0 00-23.3 4.7l-6-17.4a102.3 102.3 0 0133.4-6.6c12.7 0 22 2.7 28 7.9 5.9 5.2 8.8 13.1 8.8 23.6V879zm-40 9.7c6 0 10.8-2.8 14.1-8.5v-15.7h-6.5c-6 0-10.6 1-13.6 3.2-2.9 2-4.3 5.4-4.3 9.8 0 3.6.9 6.4 2.7 8.4 1.9 1.9 4.4 2.8 7.7 2.8zm99.6-75.6a45.6 45.6 0 0130.4 10.9l-11.4 15.7a27.8 27.8 0 00-16.9-6.3c-5.9 0-10.3 2.1-13.4 6.5-3 4.3-4.5 11.4-4.5 21 0 9.4 1.5 16 4.5 20 3 3.9 7.4 5.8 13.1 5.8 3 0 5.7-.4 8.2-1.3 2.4-1 5.4-2.6 8.9-4.7l11.5 16.4a46.7 46.7 0 01-30 10.5c-9 0-16.8-1.9-23.4-5.7a39.6 39.6 0 01-15.2-16.2c-3.5-7-5.3-15.2-5.3-24.6 0-9.3 1.8-17.6 5.3-24.9a40 40 0 0115.2-16.9 42.2 42.2 0 0123-6.2zm68-35.3v127h-26.5V780.8l26.4-2.9zm54.8 38.2l-27 39 29.2 49.8h-29.8L787 856.4l27-40.3h27zm37.4 0v88.8H852V816h26.4zm-13.3-46.9c4.5 0 8.3 1.5 11.2 4.4a14 14 0 014.5 10.7c0 4.3-1.5 8-4.5 10.9a15.5 15.5 0 01-11.2 4.2c-4.6 0-8.4-1.4-11.3-4.2a14.8 14.8 0 01-4.3-10.9c0-4.4 1.5-8 4.4-10.7 2.8-3 6.6-4.4 11.2-4.4zm111.6 89.5c0 3.7-.2 6.9-.5 9.6h-55c.8 7.4 3 12.7 6.3 15.7s8 4.5 13.9 4.5c3.5 0 7-.6 10.3-1.8 3.4-1.4 7-3.4 11-6l10.8 14.7a54.3 54.3 0 01-34.6 12.3c-14.4 0-25.5-4.2-33.2-12.7a48.8 48.8 0 01-11.5-34.1c0-9 1.6-17.1 4.8-24.3a39 39 0 0136.7-23.4c12.8 0 22.8 4 30 12 7.3 8.1 11 19.3 11 33.5zm-26-7.5c-.2-13.6-5-20.4-14.4-20.4-4.5 0-8 1.7-10.7 5-2.4 3.4-4 8.9-4.5 16.6h29.6v-1.2z" />
    </g>
    <defs>
        <clipPath id="clip0">
            <path fill="#fff" d="M0 0h1400v1400H0z" />
        </clipPath>
    </defs>
</svg>